999
"DXF R12 Output" (www.mydxf.blogspot.com)
 0 
SECTION
 2 
HEADER
 9 
$ACADVER
 1 
AC1009
 9 
$EXTMIN
 10 
 0 
 20 
 0 
 9 
$EXTMAX
 10 
 8.5 
 20 
 11 
 0 
ENDSEC
 0 
SECTION
 2 
ENTITIES
0
LINE
8
Layer 1
10
119.206000
20
21.287000
11
133.206000
21
21.287000
0
LINE
8
Layer 1
10
133.206000
20
21.287000
11
133.206000
21
7.287000
0
LINE
8
Layer 1
10
133.206000
20
7.287000
11
119.206000
21
7.287000
0
LINE
8
Layer 1
10
119.206000
20
7.287000
11
119.206000
21
21.287000
0
LINE
8
Layer 1
10
50.150000
20
78.437000
11
64.150000
21
78.437000
0
LINE
8
Layer 1
10
64.150000
20
78.437000
11
64.150000
21
64.437000
0
LINE
8
Layer 1
10
64.150000
20
64.437000
11
50.150000
21
64.437000
0
LINE
8
Layer 1
10
50.150000
20
64.437000
11
50.150000
21
78.437000
0
LINE
8
Layer 1
10
273.988000
20
35.575000
11
287.988000
21
35.575000
0
LINE
8
Layer 1
10
287.988000
20
35.575000
11
287.988000
21
21.575000
0
LINE
8
Layer 1
10
287.988000
20
21.575000
11
273.988000
21
21.575000
0
LINE
8
Layer 1
10
273.988000
20
21.575000
11
273.988000
21
35.575000
0
LINE
8
Layer 1
10
7.288000
20
78.437000
11
21.288000
21
78.437000
0
LINE
8
Layer 1
10
21.288000
20
78.437000
11
21.288000
21
64.437000
0
LINE
8
Layer 1
10
21.288000
20
64.437000
11
7.288000
21
64.437000
0
LINE
8
Layer 1
10
7.288000
20
64.437000
11
7.288000
21
78.437000
0
LINE
8
Layer 1
10
297.800000
20
83.200000
11
311.800000
21
83.200000
0
LINE
8
Layer 1
10
311.800000
20
83.200000
11
311.800000
21
69.200000
0
LINE
8
Layer 1
10
311.800000
20
69.200000
11
297.800000
21
69.200000
0
LINE
8
Layer 1
10
297.800000
20
69.200000
11
297.800000
21
83.200000
0
LINE
8
Layer 1
10
316.850000
20
83.200000
11
330.850000
21
83.200000
0
LINE
8
Layer 1
10
330.850000
20
83.200000
11
330.850000
21
69.200000
0
LINE
8
Layer 1
10
330.850000
20
69.200000
11
316.850000
21
69.200000
0
LINE
8
Layer 1
10
316.850000
20
69.200000
11
316.850000
21
83.200000
0
LINE
8
Layer 1
10
31.100000
20
78.437000
11
45.100000
21
78.437000
0
LINE
8
Layer 1
10
45.100000
20
78.437000
11
45.100000
21
64.437000
0
LINE
8
Layer 1
10
45.100000
20
64.437000
11
31.100000
21
64.437000
0
LINE
8
Layer 1
10
31.100000
20
64.437000
11
31.100000
21
78.437000
0
LINE
8
Layer 1
10
69.200000
20
78.437000
11
83.200000
21
78.437000
0
LINE
8
Layer 1
10
83.200000
20
78.437000
11
83.200000
21
64.437000
0
LINE
8
Layer 1
10
83.200000
20
64.437000
11
69.200000
21
64.437000
0
LINE
8
Layer 1
10
69.200000
20
64.437000
11
69.200000
21
78.437000
0
LINE
8
Layer 1
10
88.250000
20
78.437000
11
102.250000
21
78.437000
0
LINE
8
Layer 1
10
102.250000
20
78.437000
11
102.250000
21
64.437000
0
LINE
8
Layer 1
10
102.250000
20
64.437000
11
88.250000
21
64.437000
0
LINE
8
Layer 1
10
88.250000
20
64.437000
11
88.250000
21
78.437000
0
LINE
8
Layer 1
10
107.300000
20
78.437000
11
121.300000
21
78.437000
0
LINE
8
Layer 1
10
121.300000
20
78.437000
11
121.300000
21
64.437000
0
LINE
8
Layer 1
10
121.300000
20
64.437000
11
107.300000
21
64.437000
0
LINE
8
Layer 1
10
107.300000
20
64.437000
11
107.300000
21
78.437000
0
LINE
8
Layer 1
10
126.350000
20
78.437000
11
140.350000
21
78.437000
0
LINE
8
Layer 1
10
140.350000
20
78.437000
11
140.350000
21
64.437000
0
LINE
8
Layer 1
10
140.350000
20
64.437000
11
126.350000
21
64.437000
0
LINE
8
Layer 1
10
126.350000
20
64.437000
11
126.350000
21
78.437000
0
LINE
8
Layer 1
10
145.400000
20
78.437000
11
159.400000
21
78.437000
0
LINE
8
Layer 1
10
159.400000
20
78.437000
11
159.400000
21
64.437000
0
LINE
8
Layer 1
10
159.400000
20
64.437000
11
145.400000
21
64.437000
0
LINE
8
Layer 1
10
145.400000
20
64.437000
11
145.400000
21
78.437000
0
LINE
8
Layer 1
10
164.450000
20
78.437000
11
178.450000
21
78.437000
0
LINE
8
Layer 1
10
178.450000
20
78.437000
11
178.450000
21
64.437000
0
LINE
8
Layer 1
10
178.450000
20
64.437000
11
164.450000
21
64.437000
0
LINE
8
Layer 1
10
164.450000
20
64.437000
11
164.450000
21
78.437000
0
LINE
8
Layer 1
10
183.500000
20
78.437000
11
197.500000
21
78.437000
0
LINE
8
Layer 1
10
197.500000
20
78.437000
11
197.500000
21
64.437000
0
LINE
8
Layer 1
10
197.500000
20
64.437000
11
183.500000
21
64.437000
0
LINE
8
Layer 1
10
183.500000
20
64.437000
11
183.500000
21
78.437000
0
LINE
8
Layer 1
10
202.550000
20
78.437000
11
216.550000
21
78.437000
0
LINE
8
Layer 1
10
216.550000
20
78.437000
11
216.550000
21
64.437000
0
LINE
8
Layer 1
10
216.550000
20
64.437000
11
202.550000
21
64.437000
0
LINE
8
Layer 1
10
202.550000
20
64.437000
11
202.550000
21
78.437000
0
LINE
8
Layer 1
10
221.600000
20
78.437000
11
235.600000
21
78.437000
0
LINE
8
Layer 1
10
235.600000
20
78.437000
11
235.600000
21
64.437000
0
LINE
8
Layer 1
10
235.600000
20
64.437000
11
221.600000
21
64.437000
0
LINE
8
Layer 1
10
221.600000
20
64.437000
11
221.600000
21
78.437000
0
LINE
8
Layer 1
10
240.650000
20
78.437000
11
254.650000
21
78.437000
0
LINE
8
Layer 1
10
254.650000
20
78.437000
11
254.650000
21
64.437000
0
LINE
8
Layer 1
10
254.650000
20
64.437000
11
240.650000
21
64.437000
0
LINE
8
Layer 1
10
240.650000
20
64.437000
11
240.650000
21
78.437000
0
LINE
8
Layer 1
10
264.463000
20
78.437000
11
278.463000
21
78.437000
0
LINE
8
Layer 1
10
278.463000
20
78.437000
11
278.463000
21
64.437000
0
LINE
8
Layer 1
10
278.463000
20
64.437000
11
264.463000
21
64.437000
0
LINE
8
Layer 1
10
264.463000
20
64.437000
11
264.463000
21
78.437000
0
LINE
8
Layer 1
10
9.669000
20
59.387000
11
23.669000
21
59.387000
0
LINE
8
Layer 1
10
23.669000
20
59.387000
11
23.669000
21
45.387000
0
LINE
8
Layer 1
10
23.669000
20
45.387000
11
9.669000
21
45.387000
0
LINE
8
Layer 1
10
9.669000
20
45.387000
11
9.669000
21
59.387000
0
LINE
8
Layer 1
10
35.863000
20
59.387000
11
49.863000
21
59.387000
0
LINE
8
Layer 1
10
49.863000
20
59.387000
11
49.863000
21
45.387000
0
LINE
8
Layer 1
10
49.863000
20
45.387000
11
35.863000
21
45.387000
0
LINE
8
Layer 1
10
35.863000
20
45.387000
11
35.863000
21
59.387000
0
LINE
8
Layer 1
10
73.963000
20
59.387000
11
87.963000
21
59.387000
0
LINE
8
Layer 1
10
87.963000
20
59.387000
11
87.963000
21
45.387000
0
LINE
8
Layer 1
10
87.963000
20
45.387000
11
73.963000
21
45.387000
0
LINE
8
Layer 1
10
73.963000
20
45.387000
11
73.963000
21
59.387000
0
LINE
8
Layer 1
10
93.013000
20
59.387000
11
107.013000
21
59.387000
0
LINE
8
Layer 1
10
107.013000
20
59.387000
11
107.013000
21
45.387000
0
LINE
8
Layer 1
10
107.013000
20
45.387000
11
93.013000
21
45.387000
0
LINE
8
Layer 1
10
93.013000
20
45.387000
11
93.013000
21
59.387000
0
LINE
8
Layer 1
10
112.063000
20
59.387000
11
126.063000
21
59.387000
0
LINE
8
Layer 1
10
126.063000
20
59.387000
11
126.063000
21
45.387000
0
LINE
8
Layer 1
10
126.063000
20
45.387000
11
112.063000
21
45.387000
0
LINE
8
Layer 1
10
112.063000
20
45.387000
11
112.063000
21
59.387000
0
LINE
8
Layer 1
10
131.113000
20
59.387000
11
145.113000
21
59.387000
0
LINE
8
Layer 1
10
145.113000
20
59.387000
11
145.113000
21
45.387000
0
LINE
8
Layer 1
10
145.113000
20
45.387000
11
131.113000
21
45.387000
0
LINE
8
Layer 1
10
131.113000
20
45.387000
11
131.113000
21
59.387000
0
LINE
8
Layer 1
10
150.163000
20
59.387000
11
164.163000
21
59.387000
0
LINE
8
Layer 1
10
164.163000
20
59.387000
11
164.163000
21
45.387000
0
LINE
8
Layer 1
10
164.163000
20
45.387000
11
150.163000
21
45.387000
0
LINE
8
Layer 1
10
150.163000
20
45.387000
11
150.163000
21
59.387000
0
LINE
8
Layer 1
10
169.213000
20
59.387000
11
183.213000
21
59.387000
0
LINE
8
Layer 1
10
183.213000
20
59.387000
11
183.213000
21
45.387000
0
LINE
8
Layer 1
10
183.213000
20
45.387000
11
169.213000
21
45.387000
0
LINE
8
Layer 1
10
169.213000
20
45.387000
11
169.213000
21
59.387000
0
LINE
8
Layer 1
10
188.263000
20
59.387000
11
202.263000
21
59.387000
0
LINE
8
Layer 1
10
202.263000
20
59.387000
11
202.263000
21
45.387000
0
LINE
8
Layer 1
10
202.263000
20
45.387000
11
188.263000
21
45.387000
0
LINE
8
Layer 1
10
188.263000
20
45.387000
11
188.263000
21
59.387000
0
LINE
8
Layer 1
10
207.313000
20
59.387000
11
221.313000
21
59.387000
0
LINE
8
Layer 1
10
221.313000
20
59.387000
11
221.313000
21
45.387000
0
LINE
8
Layer 1
10
221.313000
20
45.387000
11
207.313000
21
45.387000
0
LINE
8
Layer 1
10
207.313000
20
45.387000
11
207.313000
21
59.387000
0
LINE
8
Layer 1
10
226.363000
20
59.387000
11
240.363000
21
59.387000
0
LINE
8
Layer 1
10
240.363000
20
59.387000
11
240.363000
21
45.387000
0
LINE
8
Layer 1
10
240.363000
20
45.387000
11
226.363000
21
45.387000
0
LINE
8
Layer 1
10
226.363000
20
45.387000
11
226.363000
21
59.387000
0
LINE
8
Layer 1
10
257.319000
20
59.387000
11
271.319000
21
59.387000
0
LINE
8
Layer 1
10
271.319000
20
59.387000
11
271.319000
21
45.387000
0
LINE
8
Layer 1
10
271.319000
20
45.387000
11
257.319000
21
45.387000
0
LINE
8
Layer 1
10
257.319000
20
45.387000
11
257.319000
21
59.387000
0
LINE
8
Layer 1
10
297.800000
20
59.387000
11
311.800000
21
59.387000
0
LINE
8
Layer 1
10
311.800000
20
59.387000
11
311.800000
21
45.387000
0
LINE
8
Layer 1
10
311.800000
20
45.387000
11
297.800000
21
45.387000
0
LINE
8
Layer 1
10
297.800000
20
45.387000
11
297.800000
21
59.387000
0
LINE
8
Layer 1
10
316.850000
20
59.387000
11
330.850000
21
59.387000
0
LINE
8
Layer 1
10
330.850000
20
59.387000
11
330.850000
21
45.387000
0
LINE
8
Layer 1
10
330.850000
20
45.387000
11
316.850000
21
45.387000
0
LINE
8
Layer 1
10
316.850000
20
45.387000
11
316.850000
21
59.387000
0
LINE
8
Layer 1
10
14.431000
20
40.337000
11
28.431000
21
40.337000
0
LINE
8
Layer 1
10
28.431000
20
40.337000
11
28.431000
21
26.337000
0
LINE
8
Layer 1
10
28.431000
20
26.337000
11
14.431000
21
26.337000
0
LINE
8
Layer 1
10
14.431000
20
26.337000
11
14.431000
21
40.337000
0
LINE
8
Layer 1
10
45.388000
20
40.337000
11
59.388000
21
40.337000
0
LINE
8
Layer 1
10
59.388000
20
40.337000
11
59.388000
21
26.337000
0
LINE
8
Layer 1
10
59.388000
20
26.337000
11
45.388000
21
26.337000
0
LINE
8
Layer 1
10
45.388000
20
26.337000
11
45.388000
21
40.337000
0
LINE
8
Layer 1
10
64.438000
20
40.337000
11
78.438000
21
40.337000
0
LINE
8
Layer 1
10
78.438000
20
40.337000
11
78.438000
21
26.337000
0
LINE
8
Layer 1
10
78.438000
20
26.337000
11
64.438000
21
26.337000
0
LINE
8
Layer 1
10
64.438000
20
26.337000
11
64.438000
21
40.337000
0
LINE
8
Layer 1
10
83.488000
20
40.337000
11
97.488000
21
40.337000
0
LINE
8
Layer 1
10
97.488000
20
40.337000
11
97.488000
21
26.337000
0
LINE
8
Layer 1
10
97.488000
20
26.337000
11
83.488000
21
26.337000
0
LINE
8
Layer 1
10
83.488000
20
26.337000
11
83.488000
21
40.337000
0
LINE
8
Layer 1
10
102.538000
20
40.337000
11
116.538000
21
40.337000
0
LINE
8
Layer 1
10
116.538000
20
40.337000
11
116.538000
21
26.337000
0
LINE
8
Layer 1
10
116.538000
20
26.337000
11
102.538000
21
26.337000
0
LINE
8
Layer 1
10
102.538000
20
26.337000
11
102.538000
21
40.337000
0
LINE
8
Layer 1
10
121.588000
20
40.337000
11
135.588000
21
40.337000
0
LINE
8
Layer 1
10
135.588000
20
40.337000
11
135.588000
21
26.337000
0
LINE
8
Layer 1
10
135.588000
20
26.337000
11
121.588000
21
26.337000
0
LINE
8
Layer 1
10
121.588000
20
26.337000
11
121.588000
21
40.337000
0
LINE
8
Layer 1
10
140.638000
20
40.337000
11
154.638000
21
40.337000
0
LINE
8
Layer 1
10
154.638000
20
40.337000
11
154.638000
21
26.337000
0
LINE
8
Layer 1
10
154.638000
20
26.337000
11
140.638000
21
26.337000
0
LINE
8
Layer 1
10
140.638000
20
26.337000
11
140.638000
21
40.337000
0
LINE
8
Layer 1
10
159.688000
20
40.337000
11
173.688000
21
40.337000
0
LINE
8
Layer 1
10
173.688000
20
40.337000
11
173.688000
21
26.337000
0
LINE
8
Layer 1
10
173.688000
20
26.337000
11
159.688000
21
26.337000
0
LINE
8
Layer 1
10
159.688000
20
26.337000
11
159.688000
21
40.337000
0
LINE
8
Layer 1
10
178.738000
20
40.337000
11
192.738000
21
40.337000
0
LINE
8
Layer 1
10
192.738000
20
40.337000
11
192.738000
21
26.337000
0
LINE
8
Layer 1
10
192.738000
20
26.337000
11
178.738000
21
26.337000
0
LINE
8
Layer 1
10
178.738000
20
26.337000
11
178.738000
21
40.337000
0
LINE
8
Layer 1
10
197.788000
20
40.337000
11
211.788000
21
40.337000
0
LINE
8
Layer 1
10
211.788000
20
40.337000
11
211.788000
21
26.337000
0
LINE
8
Layer 1
10
211.788000
20
26.337000
11
197.788000
21
26.337000
0
LINE
8
Layer 1
10
197.788000
20
26.337000
11
197.788000
21
40.337000
0
LINE
8
Layer 1
10
216.838000
20
40.337000
11
230.838000
21
40.337000
0
LINE
8
Layer 1
10
230.838000
20
40.337000
11
230.838000
21
26.337000
0
LINE
8
Layer 1
10
230.838000
20
26.337000
11
216.838000
21
26.337000
0
LINE
8
Layer 1
10
216.838000
20
26.337000
11
216.838000
21
40.337000
0
LINE
8
Layer 1
10
243.031000
20
40.337000
11
257.031000
21
40.337000
0
LINE
8
Layer 1
10
257.031000
20
40.337000
11
257.031000
21
26.337000
0
LINE
8
Layer 1
10
257.031000
20
26.337000
11
243.031000
21
26.337000
0
LINE
8
Layer 1
10
243.031000
20
26.337000
11
243.031000
21
40.337000
0
LINE
8
Layer 1
10
297.800000
20
40.337000
11
311.800000
21
40.337000
0
LINE
8
Layer 1
10
311.800000
20
40.337000
11
311.800000
21
26.337000
0
LINE
8
Layer 1
10
311.800000
20
26.337000
11
297.800000
21
26.337000
0
LINE
8
Layer 1
10
297.800000
20
26.337000
11
297.800000
21
40.337000
0
LINE
8
Layer 1
10
316.850000
20
40.337000
11
330.850000
21
40.337000
0
LINE
8
Layer 1
10
330.850000
20
40.337000
11
330.850000
21
26.337000
0
LINE
8
Layer 1
10
330.850000
20
26.337000
11
316.850000
21
26.337000
0
LINE
8
Layer 1
10
316.850000
20
26.337000
11
316.850000
21
40.337000
0
LINE
8
Layer 1
10
4.906000
20
21.287000
11
18.906000
21
21.287000
0
LINE
8
Layer 1
10
18.906000
20
21.287000
11
18.906000
21
7.287000
0
LINE
8
Layer 1
10
18.906000
20
7.287000
11
4.906000
21
7.287000
0
LINE
8
Layer 1
10
4.906000
20
7.287000
11
4.906000
21
21.287000
0
LINE
8
Layer 1
10
28.719000
20
21.287000
11
42.719000
21
21.287000
0
LINE
8
Layer 1
10
42.719000
20
21.287000
11
42.719000
21
7.287000
0
LINE
8
Layer 1
10
42.719000
20
7.287000
11
28.719000
21
7.287000
0
LINE
8
Layer 1
10
28.719000
20
7.287000
11
28.719000
21
21.287000
0
LINE
8
Layer 1
10
52.531000
20
21.287000
11
66.531000
21
21.287000
0
LINE
8
Layer 1
10
66.531000
20
21.287000
11
66.531000
21
7.287000
0
LINE
8
Layer 1
10
66.531000
20
7.287000
11
52.531000
21
7.287000
0
LINE
8
Layer 1
10
52.531000
20
7.287000
11
52.531000
21
21.287000
0
LINE
8
Layer 1
10
85.869000
20
21.287000
11
99.869000
21
21.287000
0
LINE
8
Layer 1
10
99.869000
20
21.287000
11
99.869000
21
7.287000
0
LINE
8
Layer 1
10
99.869000
20
7.287000
11
85.869000
21
7.287000
0
LINE
8
Layer 1
10
85.869000
20
7.287000
11
85.869000
21
21.287000
0
LINE
8
Layer 1
10
157.306000
20
21.287000
11
171.306000
21
21.287000
0
LINE
8
Layer 1
10
171.306000
20
21.287000
11
171.306000
21
7.287000
0
LINE
8
Layer 1
10
171.306000
20
7.287000
11
157.306000
21
7.287000
0
LINE
8
Layer 1
10
157.306000
20
7.287000
11
157.306000
21
21.287000
0
LINE
8
Layer 1
10
195.406000
20
21.287000
11
209.406000
21
21.287000
0
LINE
8
Layer 1
10
209.406000
20
21.287000
11
209.406000
21
7.287000
0
LINE
8
Layer 1
10
209.406000
20
7.287000
11
195.406000
21
7.287000
0
LINE
8
Layer 1
10
195.406000
20
7.287000
11
195.406000
21
21.287000
0
LINE
8
Layer 1
10
219.219000
20
21.287000
11
233.219000
21
21.287000
0
LINE
8
Layer 1
10
233.219000
20
21.287000
11
233.219000
21
7.287000
0
LINE
8
Layer 1
10
233.219000
20
7.287000
11
219.219000
21
7.287000
0
LINE
8
Layer 1
10
219.219000
20
7.287000
11
219.219000
21
21.287000
0
LINE
8
Layer 1
10
254.938000
20
16.525000
11
268.938000
21
16.525000
0
LINE
8
Layer 1
10
268.938000
20
16.525000
11
268.938000
21
2.525000
0
LINE
8
Layer 1
10
268.938000
20
2.525000
11
254.938000
21
2.525000
0
LINE
8
Layer 1
10
254.938000
20
2.525000
11
254.938000
21
16.525000
0
LINE
8
Layer 1
10
273.988000
20
16.525000
11
287.988000
21
16.525000
0
LINE
8
Layer 1
10
287.988000
20
16.525000
11
287.988000
21
2.525000
0
LINE
8
Layer 1
10
287.988000
20
2.525000
11
273.988000
21
2.525000
0
LINE
8
Layer 1
10
273.988000
20
2.525000
11
273.988000
21
16.525000
0
LINE
8
Layer 1
10
293.038000
20
16.525000
11
307.038000
21
16.525000
0
LINE
8
Layer 1
10
307.038000
20
16.525000
11
307.038000
21
2.525000
0
LINE
8
Layer 1
10
307.038000
20
2.525000
11
293.038000
21
2.525000
0
LINE
8
Layer 1
10
293.038000
20
2.525000
11
293.038000
21
16.525000
0
LINE
8
Layer 1
10
316.850000
20
16.525000
11
330.850000
21
16.525000
0
LINE
8
Layer 1
10
330.850000
20
16.525000
11
330.850000
21
2.525000
0
LINE
8
Layer 1
10
330.850000
20
2.525000
11
316.850000
21
2.525000
0
LINE
8
Layer 1
10
316.850000
20
2.525000
11
316.850000
21
16.525000
0
LINE
8
Layer 1
10
54.913000
20
59.387000
11
68.913000
21
59.387000
0
LINE
8
Layer 1
10
68.913000
20
59.387000
11
68.913000
21
45.387000
0
LINE
8
Layer 1
10
68.913000
20
45.387000
11
54.913000
21
45.387000
0
LINE
8
Layer 1
10
54.913000
20
45.387000
11
54.913000
21
59.387000
0
LINE
8
Layer 1
10
248.881000
20
58.387000
11
255.881000
21
58.387000
0
LINE
8
Layer 1
10
255.881000
20
58.387000
11
255.881000
21
43.387000
0
LINE
8
Layer 1
10
255.881000
20
43.387000
11
248.881000
21
43.387000
0
LINE
8
Layer 1
10
248.881000
20
43.387000
11
248.881000
21
58.387000
0
LINE
8
Layer 1
10
272.757000
20
58.387000
11
279.757000
21
58.387000
0
LINE
8
Layer 1
10
279.757000
20
58.387000
11
279.757000
21
43.387000
0
LINE
8
Layer 1
10
279.757000
20
43.387000
11
272.757000
21
43.387000
0
LINE
8
Layer 1
10
272.757000
20
43.387000
11
272.757000
21
58.387000
0
LINE
8
Layer 1
10
5.993000
20
39.337000
11
12.993000
21
39.337000
0
LINE
8
Layer 1
10
12.993000
20
39.337000
11
12.993000
21
24.337000
0
LINE
8
Layer 1
10
12.993000
20
24.337000
11
5.993000
21
24.337000
0
LINE
8
Layer 1
10
5.993000
20
24.337000
11
5.993000
21
39.337000
0
LINE
8
Layer 1
10
29.869000
20
39.337000
11
36.869000
21
39.337000
0
LINE
8
Layer 1
10
36.869000
20
39.337000
11
36.869000
21
24.337000
0
LINE
8
Layer 1
10
36.869000
20
24.337000
11
29.869000
21
24.337000
0
LINE
8
Layer 1
10
29.869000
20
24.337000
11
29.869000
21
39.337000
0
LINE
8
Layer 1
10
108.307000
20
8.287000
11
101.307000
21
8.287000
0
LINE
8
Layer 1
10
101.307000
20
8.287000
11
101.307000
21
23.287000
0
LINE
8
Layer 1
10
101.307000
20
23.287000
11
108.307000
21
23.287000
0
LINE
8
Layer 1
10
108.307000
20
23.287000
11
108.307000
21
8.287000
0
LINE
8
Layer 1
10
84.431000
20
8.287000
11
77.431000
21
8.287000
0
LINE
8
Layer 1
10
77.431000
20
8.287000
11
77.431000
21
23.287000
0
LINE
8
Layer 1
10
77.431000
20
23.287000
11
84.431000
21
23.287000
0
LINE
8
Layer 1
10
84.431000
20
23.287000
11
84.431000
21
8.287000
0
LINE
8
Layer 1
10
179.744000
20
8.287000
11
172.744000
21
8.287000
0
LINE
8
Layer 1
10
172.744000
20
8.287000
11
172.744000
21
23.287000
0
LINE
8
Layer 1
10
172.744000
20
23.287000
11
179.744000
21
23.287000
0
LINE
8
Layer 1
10
179.744000
20
23.287000
11
179.744000
21
8.287000
0
LINE
8
Layer 1
10
155.868000
20
8.287000
11
148.868000
21
8.287000
0
LINE
8
Layer 1
10
148.868000
20
8.287000
11
148.868000
21
23.287000
0
LINE
8
Layer 1
10
148.868000
20
23.287000
11
155.868000
21
23.287000
0
LINE
8
Layer 1
10
155.868000
20
23.287000
11
155.868000
21
8.287000
 0 
ENDSEC
 0 
EOF